<?xml version="1.0" standalone="no"?>
<!DOCTYPE svg PUBLIC "-//W3C//DTD SVG 20010904//EN"
 "http://www.w3.org/TR/2001/REC-SVG-20010904/DTD/svg10.dtd">
<svg version="1.0" xmlns="http://www.w3.org/2000/svg"
 width="1024.000000pt" height="1024.000000pt" viewBox="0 0 1024.000000 1024.000000"
 preserveAspectRatio="xMidYMid meet">
<metadata>
Created by potrace 1.14, written by Peter Selinger 2001-2017
</metadata>
<g transform="translate(0.000000,1024.000000) scale(0.100000,-0.100000)"
fill="#000000" stroke="none">
<path d="M0 5120 l0 -5120 5120 0 5120 0 0 5120 0 5120 -5120 0 -5120 0 0
-5120z m5430 3465 c277 -39 538 -114 820 -235 337 -144 603 -310 868 -544 240
-212 332 -356 335 -526 2 -67 -2 -84 -31 -142 -38 -78 -101 -139 -180 -176
l-57 -27 -535 -6 c-336 -4 -549 -2 -572 4 -53 14 -107 63 -134 121 -110 236
190 450 374 267 17 -18 32 -37 32 -42 0 -5 145 -9 355 -9 204 0 355 4 355 9 0
19 -92 129 -150 180 -125 109 -256 183 -415 234 -112 36 -182 47 -304 47 -124
0 -205 -17 -304 -64 -147 -68 -250 -169 -318 -311 -67 -140 -69 -166 -69 -782
0 -307 -4 -543 -9 -537 -4 5 -45 104 -91 219 -103 262 -146 354 -204 433 l-46
62 0 194 c0 277 26 411 114 581 135 263 365 444 660 520 105 27 107 25 -76 83
-248 79 -446 113 -663 115 -273 1 -440 -84 -528 -270 l-32 -68 -5 -490 c-3
-269 -7 -491 -8 -492 -1 0 -174 -3 -384 -6 -407 -4 -441 -8 -546 -58 -61 -30
-149 -114 -177 -169 -35 -68 -49 -163 -36 -235 l11 -59 -69 -175 c-38 -97 -72
-187 -76 -200 -4 -14 -11 -19 -16 -14 -10 10 -141 339 -191 482 -26 73 -30 95
-26 161 5 81 34 160 84 225 l26 35 -463 0 c-422 0 -467 2 -498 18 -56 28 -76
64 -76 135 0 55 4 68 37 117 59 89 286 337 399 437 218 193 482 380 724 514
288 159 344 175 430 124 71 -41 75 -59 75 -329 l0 -236 -258 0 c-231 0 -265
-2 -316 -20 -153 -52 -394 -237 -496 -380 l-21 -30 755 0 756 0 0 526 c0 367
4 539 12 572 18 72 77 125 174 155 84 26 282 62 429 77 125 12 417 5 555 -15z
m2499 -50 c188 -45 346 -201 396 -390 24 -92 18 -324 -8 -308 -6 4 -7 1 -3 -6
14 -22 -54 -140 -121 -212 -75 -79 -150 -121 -258 -144 -190 -40 -362 10 -492
144 -109 112 -153 226 -153 402 0 203 85 356 255 457 39 23 95 48 125 56 72
19 179 19 259 1z m-2876 -630 c122 -51 139 -219 31 -301 -46 -35 -134 -45
-182 -20 -97 50 -122 190 -49 273 54 61 127 79 200 48z m3320 -599 c74 -31
126 -126 107 -198 -30 -109 -156 -162 -254 -105 -56 31 -79 67 -84 130 -10
129 114 222 231 173z m-385 -343 c84 -62 317 -512 416 -804 55 -161 48 -240
-28 -307 -56 -49 -70 -44 -97 36 -29 89 -126 281 -184 368 -74 107 -175 222
-263 297 l-79 68 -2 120 c-2 140 15 194 71 229 42 27 126 23 166 -7z m-5433
-575 c34 -18 77 -62 94 -95 6 -12 29 -71 51 -130 21 -59 138 -380 258 -713
255 -701 307 -843 325 -877 13 -25 14 -25 36 29 13 29 51 123 86 208 197 487
578 1407 607 1465 27 53 55 82 103 108 38 21 53 22 300 22 250 0 262 -1 302
-22 79 -43 86 -56 426 -828 63 -143 141 -316 172 -385 31 -69 95 -212 142
-319 114 -261 342 -754 354 -765 5 -6 9 389 9 1066 0 777 3 1084 11 1109 18
53 58 99 103 120 38 17 74 19 519 19 439 0 487 -2 576 -20 162 -33 331 -106
448 -194 80 -61 219 -209 261 -279 140 -232 193 -513 143 -755 -54 -262 -208
-504 -406 -641 -163 -113 -354 -178 -552 -188 l-113 -6 0 280 0 280 52 6 c178
21 330 134 389 287 49 129 46 236 -10 356 -56 120 -137 193 -258 233 -56 19
-87 21 -303 21 l-240 0 0 -1125 c0 -1227 3 -1154 -56 -1232 -14 -18 -44 -43
-67 -56 -41 -22 -50 -22 -429 -25 -258 -2 -400 1 -428 8 -52 14 -105 61 -134
119 -13 25 -74 163 -136 306 -61 143 -147 339 -190 435 -43 96 -118 265 -165
375 -48 110 -129 295 -180 410 -51 116 -121 274 -155 353 l-63 143 -35 -78
c-36 -81 -154 -370 -299 -728 -256 -633 -478 -1155 -527 -1240 -17 -28 -44
-55 -74 -72 -45 -27 -54 -28 -200 -32 -177 -4 -222 5 -281 55 -44 38 -46 42
-204 479 -52 143 -133 366 -180 495 -194 533 -480 1333 -573 1600 -71 207 -78
255 -43 328 23 46 77 89 131 103 18 4 110 7 203 6 134 -2 176 -6 200 -19z
m4395 -908 c76 -39 114 -155 75 -229 -76 -148 -290 -116 -321 47 -13 68 36
160 101 188 44 19 100 17 145 -6z m-5025 -652 c43 -113 175 -472 300 -813 267
-731 295 -798 390 -903 30 -33 80 -77 110 -97 55 -36 188 -91 238 -97 13 -2
53 -30 87 -61 65 -60 108 -86 200 -120 49 -18 84 -21 323 -25 l269 -4 -4 -112
c-3 -106 -5 -115 -32 -150 -41 -54 -82 -76 -141 -76 l-50 0 25 -20 c74 -58
420 -215 549 -250 23 -6 49 -14 56 -16 12 -5 15 140 17 958 l4 963 78 190 c43
105 83 201 88 215 l10 25 15 -35 c8 -19 48 -125 90 -234 l75 -199 -4 -841 c-3
-803 -2 -843 16 -896 54 -159 166 -255 329 -282 51 -8 75 -7 127 6 315 81 400
465 155 695 l-66 61 285 0 286 0 2 -323 3 -324 140 47 c77 25 180 66 229 90
l89 45 -2 233 -2 232 176 0 175 0 0 -145 c0 -85 4 -145 10 -145 5 0 43 18 85
40 89 47 151 53 215 20 85 -43 120 -159 71 -229 -41 -58 -172 -142 -386 -249
-535 -267 -1097 -390 -1650 -362 -706 36 -1396 294 -1955 730 -146 114 -309
254 -364 313 -287 308 -392 444 -545 704 -229 388 -430 962 -435 1238 -1 104
12 141 76 204 45 45 102 69 169 70 l47 1 27 -72z m6483 -1 c47 -43 62 -89 62
-185 0 -295 -180 -836 -413 -1242 -174 -303 -462 -658 -649 -799 -107 -80
-198 -88 -271 -22 -48 43 -67 85 -67 144 0 44 0 45 -45 57 -53 15 -116 78
-135 134 -44 134 55 280 198 293 53 5 69 2 116 -21 31 -15 65 -41 78 -59 12
-18 23 -34 24 -35 1 -2 34 13 73 33 130 68 256 206 322 350 57 126 69 198 69
417 l0 197 38 35 c20 19 49 44 64 55 38 30 168 187 226 273 74 109 136 240
195 410 6 16 9 16 49 2 23 -8 53 -25 66 -37z m-1196 -988 c20 -10 48 -34 62
-52 74 -97 74 -199 -1 -287 -90 -105 -242 -107 -332 -5 -68 78 -79 156 -33
245 59 115 189 158 304 99z m-2154 -1283 c15 -8 39 -27 54 -43 104 -110 33
-293 -114 -293 -190 0 -247 229 -83 331 36 23 105 25 143 5z"/>
</g>
</svg>
